<svg xmlns="http://www.w3.org/2000/svg" viewBox="0 0 200.06 195.74"><g id="Layer_2" data-name="Layer 2"><g id="Layer_1-2" data-name="Layer 1"><path d="M49.34,182,94.8,132.13a7.71,7.71,0,0,1,11.13-.27l50.88,50.72a7.7,7.7,0,0,1-5.51,13.16L55,194.86A7.71,7.71,0,0,1,49.34,182Z"/><path d="M186.28,153.23l-49.83-45.46a7.71,7.71,0,0,1-.27-11.14L186.9,45.76a7.7,7.7,0,0,1,13.16,5.51l-.88,96.33A7.71,7.71,0,0,1,186.28,153.23Z"/><path d="M14.05,154.13,64.67,108a7.86,7.86,0,0,0,.27-11.36L13.43,44.91A7.86,7.86,0,0,0,0,50.53l.89,97.86A7.86,7.86,0,0,0,14.05,154.13Z"/><path d="M156.79,13.78,111.33,63.61a7.7,7.7,0,0,1-11.13.27L49.32,13.16A7.71,7.71,0,0,1,54.83,0l96.34.88A7.71,7.71,0,0,1,156.79,13.78Z"/></g></g></svg>