<svg xmlns="http://www.w3.org/2000/svg" viewBox="0 0 189 178.69"><g id="Layer_2" data-name="Layer 2"><g id="Layer_1-2" data-name="Layer 1"><path d="M55.33,166.31l32.73-35.88a7,7,0,0,1,10.13-.24l36.63,36.51a7,7,0,0,1-5,12l-69.36-.64A7,7,0,0,1,55.33,166.31Z"/><path d="M176.63,128.44,140.74,95.7a7,7,0,0,1-.24-10.13L177,48.94a7,7,0,0,1,12,5l-.63,69.36A7,7,0,0,1,176.63,128.44Z"/><path d="M12.38,128.44,48.26,95.7a7,7,0,0,0,.24-10.13L12,48.94A7,7,0,0,0,0,54l.63,69.36A7,7,0,0,0,12.38,128.44Z"/><path d="M133.42,12.38,100.69,48.26a7,7,0,0,1-10.14.24L53.92,12a7,7,0,0,1,5-12L128.3.63A7,7,0,0,1,133.42,12.38Z"/></g></g></svg>