<svg width="72" height="64" viewBox="0 0 72 64" fill="none" xmlns="http://www.w3.org/2000/svg">
<g clip-path="url(#clip0_144_233)">
<path d="M1.08271 56.6784L25.329 30.2016C25.7026 29.7928 26.1557 29.4636 26.6606 29.2341C27.1656 29.0046 27.712 28.8795 28.2669 28.8664C28.8218 28.8532 29.3736 28.9523 29.8889 29.1576C30.4043 29.3629 30.8725 29.6701 31.2653 30.0608L58.3994 57.008C58.9779 57.5822 59.3715 58.315 59.53 59.113C59.6885 59.911 59.6047 60.738 59.2892 61.4883C58.9738 62.2386 58.4411 62.8783 57.7591 63.3257C57.0771 63.773 56.2767 64.0078 55.4601 64L4.07977 63.5328C3.28584 63.5261 2.51088 63.2903 1.84863 62.854C1.18638 62.4178 0.665217 61.7997 0.348162 61.0746C0.031107 60.3494 -0.0682529 59.5483 0.0621078 58.7682C0.192469 57.988 0.546961 57.2621 1.08271 56.6784Z" fill="white"/>
<path d="M70.9209 7.3216L46.6746 33.7984C46.3004 34.2069 45.8471 34.5358 45.3418 34.765C44.8366 34.9943 44.2901 35.1193 43.7351 35.1325C43.18 35.1456 42.6281 35.0467 42.1125 34.8416C41.5969 34.6365 41.1284 34.3295 40.7351 33.9392L13.601 6.992C13.0215 6.4169 12.6275 5.68256 12.4695 4.88303C12.3115 4.08351 12.3966 3.25519 12.7141 2.50417C13.0315 1.75316 13.5667 1.11364 14.2512 0.667505C14.9358 0.221373 15.7384 -0.0110538 16.5563 -5.08458e-06L67.9527 0.467192C68.7436 0.480772 69.5137 0.721301 70.1708 1.15994C70.8279 1.59857 71.344 2.2167 71.6573 2.9402C71.9706 3.6637 72.0678 4.46186 71.9372 5.23899C71.8065 6.01612 71.4537 6.73922 70.9209 7.3216Z" fill="white"/>
</g>
<defs>
<clipPath id="clip0_144_233">
<rect width="72" height="64" fill="white"/>
</clipPath>
</defs>
</svg>
